<?xml version="1.0" encoding="utf-8"?>
<!-- Generator: Adobe Illustrator 15.0.2, SVG Export Plug-In . SVG Version: 6.00 Build 0)  -->
<!DOCTYPE svg PUBLIC "-//W3C//DTD SVG 1.1//EN" "http://www.w3.org/Graphics/SVG/1.1/DTD/svg11.dtd">
<svg version="1.1" id="Ebene_1" xmlns="http://www.w3.org/2000/svg" xmlns:xlink="http://www.w3.org/1999/xlink" x="0px" y="0px"
	 width="48px" height="48px" viewBox="0 0 48 48" enable-background="new 0 0 48 48" xml:space="preserve">
<rect fill="#050507" width="48" height="48"/>
<path fill="#FFFFFF" d="M27.402,16.174c-0.969,0.076-2.086,0.15-3.202,0.3c-1.712,0.221-3.425,0.522-4.839,1.191
	c-2.755,1.12-4.617,3.505-4.617,7.011c0,4.402,2.83,6.636,6.403,6.636c1.192,0,2.16-0.146,3.052-0.371
	c1.416-0.447,2.606-1.268,4.021-2.76c0.819,1.121,1.042,1.643,2.458,2.834c0.371,0.15,0.744,0.15,1.041-0.074
	c0.894-0.745,2.455-2.087,3.277-2.833c0.371-0.302,0.295-0.747,0.074-1.12c-0.82-1.044-1.639-1.94-1.639-3.951v-6.713
	c0-2.836,0.223-5.445-1.861-7.382c-1.711-1.569-4.392-2.164-6.477-2.164c-0.298,0-0.595,0-0.894,0
	c-3.797,0.224-7.817,1.863-8.712,6.563c-0.147,0.595,0.301,0.82,0.598,0.896l4.168,0.522c0.447-0.077,0.669-0.448,0.743-0.823
	c0.375-1.639,1.714-2.458,3.203-2.609c0.075,0,0.149,0,0.299,0c0.892,0,1.858,0.375,2.382,1.117c0.594,0.896,0.521,2.09,0.521,3.134
	V16.174L27.402,16.174z M27.402,20.502c0,1.716,0.072,3.057-0.82,4.546c-0.521,1.044-1.414,1.716-2.382,1.94
	c-0.149,0-0.371,0.076-0.596,0.076c-1.637,0-2.607-1.268-2.607-3.133c0-2.385,1.417-3.506,3.203-4.027
	c0.968-0.224,2.085-0.298,3.202-0.298V20.502z"/>
<g>
	<path fill="#FFFFFF" d="M41.371,41.438c1.82-1.54,2.589-4.335,2.629-5.794V35.4c0-0.325-0.081-0.566-0.16-0.688
		c-0.364-0.445-3.036-0.852-5.34-0.164c-0.647,0.206-1.215,0.488-1.74,0.852c-0.404,0.285-0.323,0.647,0.081,0.608
		c0.444-0.083,1.012-0.12,1.659-0.205c1.416-0.118,3.074-0.159,3.479,0.366c0.564,0.688-0.647,3.688-1.175,4.984
		C40.645,41.561,41.007,41.723,41.371,41.438z"/>
	<path fill="#FFFFFF" d="M4.2,35.645c5.217,4.74,12.093,7.578,19.779,7.578c4.772,0,10.272-1.338,14.521-3.891
		c0.566-0.326,1.131-0.69,1.656-1.094c0.729-0.525,0.082-1.339-0.646-1.016c-0.322,0.122-0.688,0.285-1.01,0.406
		c-4.654,1.825-9.545,2.677-14.076,2.677c-7.201,0-14.156-1.987-19.779-5.269C4.119,34.755,3.754,35.279,4.2,35.645z"/>
</g>
</svg>
