<?xml version="1.0" encoding="utf-8"?>
<!-- Generator: Adobe Illustrator 15.0.2, SVG Export Plug-In . SVG Version: 6.00 Build 0)  -->
<!DOCTYPE svg PUBLIC "-//W3C//DTD SVG 1.1//EN" "http://www.w3.org/Graphics/SVG/1.1/DTD/svg11.dtd">
<svg version="1.1" id="Icons" xmlns="http://www.w3.org/2000/svg" xmlns:xlink="http://www.w3.org/1999/xlink" x="0px" y="0px"
	 width="48px" height="48px" viewBox="0 0 48 48" enable-background="new 0 0 48 48" xml:space="preserve">
<rect width="48" height="48"/>
<path id="iTunes_1_" fill="#FFFFFF" d="M24,9.602C16.048,9.602,9.602,16.047,9.602,24c0,7.952,6.446,14.398,14.398,14.398
	S38.399,31.952,38.399,24C38.399,16.047,31.952,9.602,24,9.602z M24,35.521c-6.361,0-11.521-5.158-11.521-11.521
	S17.637,12.479,24,12.479S35.521,17.637,35.521,24S30.362,35.521,24,35.521z M29.273,27.857c0.093,1.226-0.827,2.342-2.056,2.494
	c-1.227,0.151-2.299-0.718-2.392-1.941c-0.094-1.225,0.829-2.342,2.056-2.491c0.389-0.049,0.76,0.006,1.092,0.14v-6.014
	l-5.761,1.071v7.514h-0.012c0.004,0.021,0.009,0.04,0.009,0.062c0.093,1.226-0.827,2.34-2.054,2.492
	c-1.229,0.151-2.297-0.718-2.391-1.94c-0.095-1.226,0.825-2.341,2.053-2.491c0.389-0.05,0.76,0.006,1.092,0.143v-8.662V18.23
	l8.356-1.427l0.008-0.003v0.002l0.003-0.002l-0.003,0.038v10.96h-0.011C29.269,27.818,29.271,27.837,29.273,27.857z"/>
</svg>
