<?xml version="1.0" encoding="utf-8"?>
<!-- Generator: Adobe Illustrator 15.0.2, SVG Export Plug-In . SVG Version: 6.00 Build 0)  -->
<!DOCTYPE svg PUBLIC "-//W3C//DTD SVG 1.1//EN" "http://www.w3.org/Graphics/SVG/1.1/DTD/svg11.dtd">
<svg version="1.1" id="Icons" xmlns="http://www.w3.org/2000/svg" xmlns:xlink="http://www.w3.org/1999/xlink" x="0px" y="0px"
	 width="48px" height="48px" viewBox="0 0 48 48" enable-background="new 0 0 48 48" xml:space="preserve">
<rect width="48" height="48"/>
<path id="Twitter_1_" fill="#FFFFFF" d="M31.123,31.197h-7.105c-0.987,0-1.827-0.346-2.518-1.038
	c-0.693-0.695-1.035-1.535-1.035-2.528v-2.529H30.59c0.912,0,1.699-0.328,2.354-0.979c0.652-0.657,0.98-1.443,0.98-2.357
	c0-0.918-0.328-1.701-0.982-2.356c-0.655-0.653-1.444-0.98-2.362-0.98H20.463v-5.226c0-0.989-0.353-1.835-1.053-2.54
	c-0.697-0.707-1.541-1.062-2.52-1.062c-1.006,0-1.864,0.35-2.563,1.039c-0.699,0.693-1.049,1.547-1.049,2.564v14.429
	c0,2.968,1.049,5.503,3.148,7.607c2.101,2.108,4.633,3.159,7.592,3.159h7.105c0.986,0,1.833-0.354,2.538-1.062
	c0.705-0.703,1.058-1.551,1.058-2.539c0-0.987-0.353-1.835-1.058-2.541C32.959,31.554,32.111,31.197,31.123,31.197z"/>
</svg>
