<?xml version="1.0" encoding="utf-8"?>
<!-- Generator: Adobe Illustrator 15.0.2, SVG Export Plug-In . SVG Version: 6.00 Build 0)  -->
<!DOCTYPE svg PUBLIC "-//W3C//DTD SVG 1.1//EN" "http://www.w3.org/Graphics/SVG/1.1/DTD/svg11.dtd">
<svg version="1.1" id="Icons" xmlns="http://www.w3.org/2000/svg" xmlns:xlink="http://www.w3.org/1999/xlink" x="0px" y="0px"
	 width="48px" height="48px" viewBox="0 0 48 48" enable-background="new 0 0 48 48" xml:space="preserve">
<rect width="48" height="48"/>
<path id="YouTube_1_" fill="#FFFFFF" d="M32.301,30.666h-1.58l0.008-0.918c0-0.408,0.335-0.742,0.744-0.742h0.101
	c0.41,0,0.746,0.334,0.746,0.742L32.301,30.666z M26.372,28.697c-0.401,0-0.729,0.271-0.729,0.601v4.466
	c0,0.329,0.328,0.598,0.729,0.598c0.402,0,0.731-0.269,0.731-0.598v-4.466C27.104,28.968,26.774,28.697,26.372,28.697z M36,26.201
	v8.494c0,2.037-1.768,3.703-3.926,3.703H15.928c-2.162,0-3.928-1.666-3.928-3.703v-8.494c0-2.038,1.766-3.705,3.928-3.705h16.146
	C34.232,22.496,36,24.163,36,26.201z M17.004,35.617l-0.002-8.947l2.002,0.001v-1.326l-5.336-0.008v1.304l1.666,0.006v8.972
	L17.004,35.617L17.004,35.617z M23.004,28.003h-1.669v4.776c0,0.691,0.042,1.037-0.003,1.16c-0.135,0.369-0.744,0.764-0.982,0.039
	c-0.041-0.127-0.006-0.51-0.006-1.166l-0.006-4.811h-1.66l0.006,4.734c0,0.727-0.018,1.268,0.004,1.514
	c0.041,0.436,0.027,0.941,0.431,1.23c0.751,0.539,2.188-0.082,2.55-0.854l-0.003,0.987h1.341v-7.61H23.004z M28.342,33.475
	l-0.002-3.978c-0.002-1.517-1.137-2.423-2.676-1.196l0.008-2.957l-1.668,0.004l-0.008,10.204l1.371-0.021l0.124-0.637
	C27.244,36.503,28.346,35.4,28.342,33.475z M33.564,32.947l-1.252,0.007c0,0.049-0.002,0.106-0.002,0.169v0.697
	c0,0.373-0.31,0.679-0.685,0.679h-0.245c-0.375,0-0.685-0.306-0.685-0.679v-0.076v-0.77v-0.99h2.864v-1.078
	c0-0.788-0.02-1.575-0.084-2.026c-0.205-1.426-2.207-1.651-3.217-0.922c-0.317,0.228-0.561,0.533-0.701,0.942
	c-0.142,0.41-0.213,0.97-0.213,1.682v2.371C29.348,36.895,34.137,36.337,33.564,32.947z M27.146,20.074
	c0.086,0.209,0.22,0.379,0.4,0.507c0.18,0.126,0.408,0.188,0.684,0.188c0.24,0,0.453-0.063,0.64-0.199
	c0.185-0.133,0.341-0.332,0.468-0.598l-0.031,0.654h1.86v-7.911h-1.465v6.157c0,0.333-0.274,0.605-0.61,0.605
	c-0.334,0-0.608-0.272-0.608-0.605v-6.157h-1.528v5.336c0,0.681,0.014,1.134,0.032,1.362C27.008,19.645,27.061,19.861,27.146,20.074
	z M21.51,15.605c0-0.76,0.063-1.353,0.189-1.778c0.126-0.427,0.354-0.769,0.684-1.027c0.328-0.26,0.75-0.389,1.262-0.389
	c0.431,0,0.799,0.084,1.105,0.249c0.311,0.167,0.549,0.383,0.715,0.648c0.168,0.269,0.283,0.543,0.344,0.823
	c0.063,0.286,0.095,0.716,0.095,1.296v2c0,0.734-0.029,1.273-0.087,1.617c-0.057,0.344-0.18,0.662-0.366,0.961
	c-0.187,0.295-0.426,0.518-0.717,0.658c-0.293,0.143-0.63,0.212-1.009,0.212c-0.426,0-0.781-0.06-1.075-0.181
	c-0.296-0.122-0.524-0.307-0.687-0.549c-0.164-0.244-0.281-0.541-0.351-0.888c-0.07-0.346-0.104-0.866-0.104-1.56L21.51,15.605
	L21.51,15.605z M22.967,18.749c0,0.446,0.334,0.813,0.739,0.813c0.406,0,0.738-0.367,0.738-0.813v-4.211
	c0-0.447-0.332-0.813-0.738-0.813c-0.405,0-0.739,0.366-0.739,0.813V18.749z M17.818,20.875h1.755l0.002-6.066l2.073-5.197h-1.92
	l-1.103,3.859l-1.118-3.869h-1.898l2.206,5.211L17.818,20.875z"/>
</svg>
