<?xml version="1.0" encoding="utf-8"?>
<!-- Generator: Adobe Illustrator 15.0.2, SVG Export Plug-In . SVG Version: 6.00 Build 0)  -->
<!DOCTYPE svg PUBLIC "-//W3C//DTD SVG 1.1//EN" "http://www.w3.org/Graphics/SVG/1.1/DTD/svg11.dtd">
<svg version="1.1" id="Icons" xmlns="http://www.w3.org/2000/svg" xmlns:xlink="http://www.w3.org/1999/xlink" x="0px" y="0px"
	 width="48px" height="48px" viewBox="0 0 48 48" enable-background="new 0 0 48 48" xml:space="preserve">
<rect width="48" height="48"/>
<path id="Facebook_1_" fill="#FFFFFF" d="M20.184,15.178c0,0.727,0,3.967,0,3.967h-2.904v4.848h2.904V38.4h5.969V23.993h4.004
	c0,0,0.375-2.325,0.557-4.867c-0.521,0-4.537,0-4.537,0s0-2.821,0-3.315s0.649-1.162,1.293-1.162c0.643,0,1.996,0,3.252,0
	c0-0.66,0-2.939,0-5.047c-1.676,0-3.582,0-4.422,0C20.037,9.602,20.184,14.453,20.184,15.178z"/>
</svg>
