<?xml version="1.0" encoding="utf-8"?>
<!-- Generator: Adobe Illustrator 15.0.2, SVG Export Plug-In . SVG Version: 6.00 Build 0)  -->
<!DOCTYPE svg PUBLIC "-//W3C//DTD SVG 1.1//EN" "http://www.w3.org/Graphics/SVG/1.1/DTD/svg11.dtd">
<svg version="1.1" id="Icons" xmlns="http://www.w3.org/2000/svg" xmlns:xlink="http://www.w3.org/1999/xlink" x="0px" y="0px"
	 width="48px" height="48px" viewBox="0 0 48 48" enable-background="new 0 0 48 48" xml:space="preserve">
<rect width="48" height="48"/>
<path id="SoundCloud_1_" fill="#FFFFFF" d="M9.6,26.889c0,0.973,0.442,1.844,1.142,2.43v-4.859C10.043,25.043,9.6,25.914,9.6,26.889
	 M11.949,23.818v6.139c0.285,0.079,0.586,0.123,0.896,0.123h0.312v-6.37c-0.104-0.009-0.208-0.015-0.313-0.015
	C12.532,23.695,12.233,23.738,11.949,23.818 M14.617,24.217c-0.083-0.054-0.165-0.102-0.253-0.146v6.011h1.207v-8.038
	C15.092,22.669,14.756,23.409,14.617,24.217 M16.779,20.911v9.169h1.208v-9.764C17.555,20.462,17.15,20.665,16.779,20.911
	 M19.194,20.066V30.08h1.208v-9.977c-0.248-0.037-0.502-0.057-0.762-0.057C19.489,20.048,19.342,20.057,19.194,20.066
	 M22.275,20.771c-0.395-0.231-0.818-0.416-1.27-0.539v9.848h1.812V20.046C22.62,20.273,22.438,20.52,22.275,20.771 M23.422,19.441
	V30.08h11.473v-0.016c2.416-0.153,3.506-1.651,3.506-3.48c0-1.932-1.46-3.496-3.426-3.496c-0.504,0-0.92,0.104-1.357,0.292
	c-0.314-3.065-2.915-5.46-6.118-5.46C25.932,17.92,24.508,18.493,23.422,19.441"/>
</svg>
