<?xml version="1.0" encoding="utf-8"?>
<!-- Generator: Adobe Illustrator 15.0.2, SVG Export Plug-In . SVG Version: 6.00 Build 0)  -->
<!DOCTYPE svg PUBLIC "-//W3C//DTD SVG 1.1//EN" "http://www.w3.org/Graphics/SVG/1.1/DTD/svg11.dtd">
<svg version="1.1" id="Icons" xmlns="http://www.w3.org/2000/svg" xmlns:xlink="http://www.w3.org/1999/xlink" x="0px" y="0px"
	 width="48px" height="48px" viewBox="0 0 48 48" enable-background="new 0 0 48 48" xml:space="preserve">
<rect width="48" height="48"/>
<path id="Spotify_1_" fill="#FFFFFF" d="M14.523,34.97c2.217-3.194,5.901-5.295,10.085-5.295c3.81,0,7.201,1.74,9.453,4.464
	c2.582-2.604,4.178-6.184,4.178-10.138c0-7.953-6.446-14.399-14.398-14.399c-7.953,0-14.4,6.446-14.4,14.399
	C9.439,28.396,11.416,32.329,14.523,34.97z M31.537,28.318c-0.209,0.468-0.584,0.563-1.022,0.359
	c-1.916-0.887-4.051-1.384-6.303-1.384c-2.311,0-4.496,0.522-6.453,1.455c-0.211,0.101-0.672,0.144-0.879-0.453
	c-0.207-0.599,0.12-0.935,0.309-1.022c2.137-0.998,4.513-1.564,7.023-1.564c2.469,0,4.844,0.469,6.91,1.514
	C31.448,27.387,31.746,27.854,31.537,28.318z M32.763,24.643c-0.148,0.209-0.381,0.354-0.656,0.354
	c-0.076,0-0.146-0.023-0.215-0.045c-2.352-1.037-4.945-1.621-7.68-1.621c-2.714,0-5.291,0.574-7.628,1.598
	c-0.084,0.03-0.171,0.057-0.266,0.057c-0.281,0-0.519-0.149-0.665-0.366l-0.155-0.466c0.002-0.243,0.115-0.452,0.285-0.603
	c2.574-1.155,5.424-1.806,8.429-1.806c3.004,0,5.854,0.648,8.426,1.805c0.174,0.146,0.283,0.363,0.289,0.605L32.763,24.643z
	 M14.736,18.826c2.93-1.184,6.124-1.844,9.476-1.844c3.321,0,6.487,0.646,9.395,1.81c0.393,0.201,0.669,0.597,0.669,1.065
	c0,0.67-0.542,1.211-1.21,1.211c-0.094,0-0.182-0.021-0.268-0.041c-2.654-1.069-5.55-1.666-8.586-1.666
	c-3.037,0-5.936,0.597-8.59,1.668c-0.086,0.02-0.171,0.039-0.263,0.039c-0.667,0-1.209-0.541-1.209-1.211
	C14.15,19.419,14.388,19.038,14.736,18.826z M24.608,34.436c-2.438,0-4.6,1.176-5.979,2.979c1.618,0.629,3.369,0.986,5.209,0.986
	c2.279,0,4.426-0.543,6.342-1.486C28.804,35.395,26.817,34.436,24.608,34.436z"/>
</svg>
